<svg xmlns="http://www.w3.org/2000/svg" viewBox="0 0 500 500"><defs><style>.cls-1{fill:#fff;}.cls-1,.cls-2{fill-rule:evenodd;}.cls-2{fill:#bf6228;}</style></defs><g id="New_Layer" data-name="New Layer"><rect width="500" height="500" rx="70"/><path class="cls-1" d="M155.44,37.61a63.09,63.09,0,1,0,70.89,54.55C221.79,57.41,189.93,32.91,155.44,37.61ZM168.66,69A30.06,30.06,0,0,1,186,78a30.86,30.86,0,0,1,0,44.33,31.56,31.56,0,0,1-53.73-22.17A30.55,30.55,0,0,1,141.61,78,31,31,0,0,1,148,72.85,31.91,31.91,0,0,1,168.66,69Z"/><path class="cls-1" d="M151.57,180.22c-52.33,3.95-96.93,31-116.46,70.78a85,85,0,0,0-7.33,19.5c-2.25,9-2.78,13.38-2.78,23.33s.53,14.35,2.78,23.33a85,85,0,0,0,7.33,19.5A113.7,113.7,0,0,0,68.69,377l3.61,2.78.19,41.63L72.67,463l47-27.43,47-27.46,6.38-.45A201.72,201.72,0,0,0,194.4,405c44.74-8.57,80.66-33.66,97.68-68.34a85.45,85.45,0,0,0,7.32-19.5c2.26-9,2.78-13.37,2.78-23.33s-.52-14.35-2.78-23.33a87,87,0,0,0-6.91-18.75c-2.78-5.78-6.76-12.58-7.36-12.58s-9.21,5-12.4,7.17a108.33,108.33,0,0,0-11.8,9.43l-2.59,2.37,1.43,2.22a74,74,0,0,1,8.6,21c2.93,14.2,1.13,27-5.67,40.5-7.82,15.55-21.53,28.44-40.13,37.68-16.53,8.23-34.6,12.62-54.81,13.3l-7.06.23-5.34,3.08c-2.89,1.69-9.43,5.41-14.5,8.26s-15.21,8.64-22.54,12.85L105,404.85l-.11-22.66-.11-22.61-2.14-1.09a93.13,93.13,0,0,1-33-27.95,84,84,0,0,1-9.05-17.92c-5.15-16.08-3.87-31.26,3.94-46.78,12.06-24,38.44-41.7,72.06-48.42,9.69-2,15.33-2.45,27.05-2.45s17.36.49,27,2.45A116,116,0,0,1,207,221.7a33.24,33.24,0,0,0,4,1.2s.86-1.09,1.88-2.33a123.76,123.76,0,0,1,20.73-19.83l4.36-3.27-4.66-2.22C208.79,183.57,179.26,178.16,151.57,180.22Z"/><path class="cls-2" d="M330.21,37.27Q308,39.92,292.6,54.63a63.17,63.17,0,0,0-18.44,34c-1.13,5.6-1.21,17-.19,22.28A64.65,64.65,0,0,0,281.22,131a63.26,63.26,0,0,0,43.43,31.19,74.82,74.82,0,0,0,23.14,0A63.26,63.26,0,0,0,391.22,131a64.4,64.4,0,0,0,7.25-20.17c1-5.3.94-16.68-.19-22.28-5.22-26-24.38-45.23-50.3-50.45A98.59,98.59,0,0,0,330.21,37.27ZM341.1,69a30.06,30.06,0,0,1,17.29,9,30.86,30.86,0,0,1,0,44.33,31.56,31.56,0,0,1-53.73-22.17A30.59,30.59,0,0,1,314.05,78a31.24,31.24,0,0,1,6.39-5.15A31.92,31.92,0,0,1,341.1,69Z"/><path class="cls-2" d="M324.39,180.22c-28,2.07-54.7,11.05-76.08,25.55Q221.08,224.19,207.92,251a86.15,86.15,0,0,0-7.32,19.5c-2.26,9-2.78,13.38-2.78,23.33a83,83,0,0,0,.67,13.15,124.16,124.16,0,0,0,4.92,19.57,125.57,125.57,0,0,0,11.5,22.39c.3.42,6.46-3,11.42-6.27a98.48,98.48,0,0,0,12.89-10.22L242,329.9l-1.58-2.45a84.48,84.48,0,0,1-7.06-14.91,53.18,53.18,0,0,1-2.86-18.71,47.67,47.67,0,0,1,.87-11q4-20.22,20-36.14c16.76-16.75,41-27.65,69.13-31.07a129.46,129.46,0,0,1,16-.64c11.72,0,17.36.49,27,2.45a120.21,120.21,0,0,1,34.19,11.91c14.61,7.58,26.78,18.33,34.56,30.5a84.1,84.1,0,0,1,7.29,15.29,53.18,53.18,0,0,1,2.85,18.71,48.33,48.33,0,0,1-.86,11q-4.07,20.24-20,36.14a95.27,95.27,0,0,1-22.65,16.72l-3.65,1.88-.07,22.61L395,404.85l-13.34-7.63c-7.33-4.21-17.47-10-22.54-12.85s-11.61-6.57-14.5-8.26L339.3,373l-7.06-.23a136,136,0,0,1-38.58-6.61l-3.24-1.09L288.09,368a122.57,122.57,0,0,1-20.58,19.92c-2,1.54-3.68,2.85-3.76,2.93-.23.18,6.91,3.53,11.65,5.44,15.93,6.39,31.89,9.92,51.43,11.39l6.57.45,47,27.46,47,27.43.18-41.59.19-41.59,2.63-2c15.18-11.5,26.9-25.47,34.6-41.14a85.53,85.53,0,0,0,7.29-19.5c2.25-9,2.78-13.37,2.78-23.33s-.53-14.35-2.78-23.33a85.73,85.73,0,0,0-7.33-19.5c-14-28.47-41-50.83-75.7-62.59A169.49,169.49,0,0,0,324.39,180.22Z"/></g></svg>