'<svg viewBox="0.0 0.0 30.0 30.0">
    <path
        d="M 0 15 C 0 6.728467464447021 6.728467464447021 0 15 0 C 23.27153396606445 0 30 6.728467464447021 30 15 C 30 23.27153396606445 23.27153396606445 30 15 30 C 6.728467464447021 30 0 23.27153396606445 0 15 Z M 2.250472545623779 15 C 2.250472545623779 22.03087043762207 7.970479965209961 27.75087928771973 15 27.75087928771973 C 22.03087043762207 27.75087928771973 27.75087928771973 22.03087043762207 27.75087928771973 15 C 27.75087928771973 7.970479965209961 22.03087043762207 2.250472545623779 15 2.250472545623779 C 7.970479965209961 2.250472545623779 2.250472545623779 7.970479965209961 2.250472545623779 15 Z M 16.37026405334473 21.00216102600098 L 11.14031219482422 15.79785823822021 C 10.92835903167725 15.58590602874756 10.8095588684082 15.29970359802246 10.8095588684082 15 C 10.8095588684082 14.70164775848389 10.92835903167725 14.41409492492676 11.14031219482422 14.20349311828613 L 16.37026405334473 8.996490478515625 C 16.81036949157715 8.559085845947266 17.52047538757324 8.559085845947266 17.96058082580566 8.999190330505371 C 18.39933395385742 9.440645217895508 18.39663505554199 10.15345191955566 17.9578800201416 10.59085655212402 L 13.52983570098877 15 L 17.9578800201416 19.40914535522461 C 18.39663505554199 19.84789848327637 18.39933395385742 20.55935668945313 17.96058082580566 20.99946022033691 C 17.74187850952148 21.22221374511719 17.45162582397461 21.33156394958496 17.16407203674316 21.33156394958496 C 16.87787055969238 21.33156394958496 16.58896636962891 21.22221374511719 16.37026405334473 21.00216102600098 Z"
        fill="#ff7847" stroke="none" stroke-width="1" stroke-miterlimit="4" stroke-linecap="butt" />
</svg>