<svg xmlns="http://www.w3.org/2000/svg" viewBox="0 0 430 407">
    <g id="New_Layer" data-name="New Layer">
        <path class="cls-1" fill="#161c26" fill-rule="evenodd"
            d="M159.64,47.05a60.28,60.28,0,1,0,67.74,52.13C223,66,192.6,42.56,159.64,47.05Zm12.64,30a28.66,28.66,0,0,1,16.51,8.58,29.47,29.47,0,0,1,0,42.36,30.15,30.15,0,0,1-51.33-21.18,29.23,29.23,0,0,1,9-21.18,29.74,29.74,0,0,1,6.1-4.92A30.64,30.64,0,0,1,172.28,77.06Z"
            transform="translate(-35 -46.5)" />
        <path class="cls-1" fill="#161c26" fill-rule="evenodd"
            d="M155.94,183.32C105.94,187.09,63.32,213,44.66,251a81,81,0,0,0-7,18.63C35.5,278.17,35,282.37,35,291.88s.5,13.72,2.66,22.3a81.16,81.16,0,0,0,7,18.63,108.7,108.7,0,0,0,32.09,38.52L80.2,374l.18,39.78.18,39.74,44.87-26.21,44.87-26.24,6.11-.43a189.9,189.9,0,0,0,20.46-2.51c42.76-8.19,77.07-32.17,93.34-65.3a82.1,82.1,0,0,0,7-18.63c2.15-8.58,2.65-12.78,2.65-22.3s-.5-13.71-2.65-22.29a83.53,83.53,0,0,0-6.61-17.91c-2.65-5.53-6.46-12-7-12s-8.8,4.74-11.85,6.86a99.75,99.75,0,0,0-11.27,9L258,257.78l1.36,2.12a70.37,70.37,0,0,1,8.22,20c2.8,13.57,1.08,25.81-5.42,38.7-7.46,14.86-20.57,27.17-38.34,36-15.79,7.87-33.06,12.07-52.37,12.71l-6.75.22-5.1,2.94c-2.76,1.62-9,5.17-13.86,7.9s-14.54,8.26-21.54,12.28L111.43,398l-.11-21.64-.11-21.61-2-1A89.12,89.12,0,0,1,77.61,327,80.09,80.09,0,0,1,69,309.83C64,294.47,65.26,280,72.73,265.14c11.52-22.91,36.72-39.85,68.85-46.28,9.27-1.86,14.65-2.33,25.85-2.33s16.59.47,25.85,2.33A112,112,0,0,1,208.9,223a33.23,33.23,0,0,0,3.76,1.15s.83-1.05,1.8-2.23a118,118,0,0,1,19.82-19l4.16-3.12L234,197.68C210.62,186.52,182.4,181.35,155.94,183.32Z"
            transform="translate(-35 -46.5)" />
        <path fill="#bf6228" fill-rule="evenodd"
            d="M326.64,46.73q-21.27,2.52-35.93,16.58a60.44,60.44,0,0,0-17.63,32.46c-1.07,5.34-1.15,16.22-.18,21.28a61.88,61.88,0,0,0,6.93,19.28,60.45,60.45,0,0,0,41.5,29.8,71.34,71.34,0,0,0,22.12,0,60.41,60.41,0,0,0,41.49-29.8,61.63,61.63,0,0,0,6.93-19.28c1-5.06.9-15.94-.18-21.28-5-24.85-23.29-43.23-48.07-48.22A94.3,94.3,0,0,0,326.64,46.73Zm10.42,30.33a28.72,28.72,0,0,1,16.51,8.58,29.49,29.49,0,0,1,0,42.36,30.16,30.16,0,0,1-51.34-21.18,29.2,29.2,0,0,1,9-21.18,29.74,29.74,0,0,1,6.1-4.92A30.64,30.64,0,0,1,337.06,77.06Z"
            transform="translate(-35 -46.5)" />
        <path fill="#bf6228" fill-rule="evenodd"
            d="M321.08,183.32c-26.74,2-52.27,10.56-72.7,24.42q-26,17.59-38.59,43.22a82.45,82.45,0,0,0-7,18.63c-2.15,8.58-2.65,12.78-2.65,22.29a79.06,79.06,0,0,0,.64,12.57,117.55,117.55,0,0,0,4.71,18.7,119.48,119.48,0,0,0,11,21.4c.29.39,6.17-2.84,10.91-6a94.07,94.07,0,0,0,12.32-9.76l2.62-2.44L240.81,324a81.57,81.57,0,0,1-6.75-14.25,50.7,50.7,0,0,1-2.73-17.88,45.59,45.59,0,0,1,.83-10.52Q236,262,251.26,246.83c16-16,39.2-26.42,66.05-29.69a123.36,123.36,0,0,1,15.26-.61c11.2,0,16.58.47,25.85,2.33a115.07,115.07,0,0,1,32.66,11.38c14,7.26,25.6,17.52,33,29.15a80.6,80.6,0,0,1,7,14.61,50.93,50.93,0,0,1,2.72,17.88A46.14,46.14,0,0,1,433,302.4q-3.89,19.34-19.1,34.54a91.11,91.11,0,0,1-21.65,16l-3.48,1.8-.07,21.61L388.57,398l-12.74-7.28c-7-4-16.7-9.55-21.54-12.28s-11.1-6.28-13.86-7.9l-5.1-2.94-6.75-.22A130,130,0,0,1,291.71,361l-3.08-1-2.23,2.73a117.11,117.11,0,0,1-19.67,19c-1.9,1.47-3.52,2.73-3.59,2.8s6.6,3.37,11.13,5.2c15.22,6.11,30.48,9.48,49.14,10.88l6.29.43,44.87,26.24,44.87,26.21.18-39.74L419.8,374l2.52-1.9c14.5-11,25.7-24.34,33.06-39.31a82.13,82.13,0,0,0,7-18.63c2.16-8.58,2.66-12.78,2.66-22.3s-.5-13.71-2.66-22.29a81.51,81.51,0,0,0-7-18.63C442,223.75,416.14,202.39,383,191.15A162.17,162.17,0,0,0,321.08,183.32Z"
            transform="translate(-35 -46.5)" />
    </g>
</svg>