<svg xmlns="http://www.w3.org/2000/svg" viewBox="0 0 480 454.33"><defs><style>.cls-1{fill:#fff;}.cls-1,.cls-2{fill-rule:evenodd;}.cls-2{fill:#bf6228;}</style></defs><g id="New_Layer" data-name="New Layer"><path class="cls-1" d="M149.14,23.45c-36.79,5-62.64,38.67-57.83,75.26A67.26,67.26,0,1,0,224.75,81.64C219.9,44.57,185.92,18.44,149.14,23.45ZM163.24,57a32.05,32.05,0,0,1,18.43,9.58,32.91,32.91,0,0,1,0,47.29,32.9,32.9,0,0,1-47.28,0,32.91,32.91,0,0,1,0-47.29A32.85,32.85,0,0,1,141.2,61,34.09,34.09,0,0,1,163.24,57Z" transform="translate(-10 -22.84)"/><path class="cls-1" d="M145,175.57c-55.82,4.21-103.39,33.1-124.23,75.5A90.44,90.44,0,0,0,13,271.87c-2.41,9.57-3,14.26-3,24.88s.56,15.31,3,24.89a90.79,90.79,0,0,0,7.81,20.8,121.41,121.41,0,0,0,35.83,43l3.84,3,.2,44.4.2,44.36L111,447.91,161,418.62l6.81-.48a215.33,215.33,0,0,0,22.84-2.81c47.73-9.14,86-35.91,104.19-72.89a91.3,91.3,0,0,0,7.82-20.8c2.4-9.58,3-14.27,3-24.89s-.56-15.31-3-24.88a93.15,93.15,0,0,0-7.38-20c-3-6.17-7.21-13.42-7.85-13.42s-9.82,5.29-13.23,7.65a114.54,114.54,0,0,0-12.58,10.06l-2.76,2.52,1.52,2.37a79,79,0,0,1,9.18,22.36c3.12,15.15,1.2,28.81-6.06,43.2-8.33,16.59-23,30.33-42.79,40.19-17.64,8.78-36.91,13.47-58.47,14.19l-7.53.24-5.7,3.28c-3.08,1.81-10.05,5.77-15.46,8.82s-16.23,9.22-24,13.71l-14.22,8.13L95.2,391l-.12-24.13-2.29-1.16A99.13,99.13,0,0,1,57.57,335.9a88.64,88.64,0,0,1-9.66-19.11c-5.49-17.15-4.13-33.34,4.21-49.89,12.86-25.57,41-44.48,76.86-51.66,10.34-2.08,16.35-2.6,28.85-2.6s18.51.52,28.85,2.6a126.37,126.37,0,0,1,17.44,4.57,35.64,35.64,0,0,0,4.2,1.28s.93-1.16,2-2.48a132.16,132.16,0,0,1,22.12-21.16L237.1,194l-5-2.36C206,179.14,174.54,173.37,145,175.57Z" transform="translate(-10 -22.84)"/><path class="cls-2" d="M335.56,23.09q-23.74,2.82-40.12,18.52a67.34,67.34,0,0,0-19.67,36.22c-1.2,6-1.29,18.11-.2,23.77a68.84,68.84,0,0,0,7.73,21.51c9.78,17.4,26.29,29.26,46.33,33.27a79.79,79.79,0,0,0,24.68,0c20-4,36.55-15.87,46.33-33.27a69.09,69.09,0,0,0,7.73-21.51c1.08-5.66,1-17.8-.2-23.77-5.57-27.73-26-48.25-53.66-53.82A105.37,105.37,0,0,0,335.56,23.09ZM347.18,57a32.05,32.05,0,0,1,18.43,9.58,32.91,32.91,0,0,1,0,47.29,32.9,32.9,0,0,1-47.28,0,32.91,32.91,0,0,1,0-47.29A32.59,32.59,0,0,1,325.14,61,34.08,34.08,0,0,1,347.18,57Z" transform="translate(-10 -22.84)"/><path class="cls-2" d="M329.35,175.57c-29.86,2.2-58.35,11.78-81.15,27.25q-29,19.65-43.08,48.25a91.65,91.65,0,0,0-7.82,20.8c-2.4,9.57-3,14.26-3,24.88a87.79,87.79,0,0,0,.72,14,131.71,131.71,0,0,0,5.25,20.88c2.56,6.93,8.45,18.47,12.26,23.88.32.44,6.89-3.17,12.18-6.69A105.58,105.58,0,0,0,238.5,338l2.92-2.73-1.68-2.6a90.53,90.53,0,0,1-7.53-15.91,56.52,56.52,0,0,1-3.05-20,51.17,51.17,0,0,1,.92-11.74q4.33-21.58,21.32-38.55c17.88-17.87,43.76-29.49,73.74-33.14a138.65,138.65,0,0,1,17-.68c12.5,0,18.51.52,28.85,2.6A128.43,128.43,0,0,1,407.49,228c15.59,8.09,28.57,19.55,36.87,32.54a89,89,0,0,1,7.77,16.31,56.73,56.73,0,0,1,3.05,19.95,50.46,50.46,0,0,1-.93,11.74q-4.32,21.58-21.31,38.56a101.7,101.7,0,0,1-24.17,17.83l-3.89,2L404.8,391l-.12,24.16L390.46,407c-7.82-4.49-18.64-10.66-24-13.71s-12.38-7-15.46-8.82l-5.7-3.28-7.53-.24a144.94,144.94,0,0,1-41.15-7.06l-3.45-1.16-2.49,3.05a130.77,130.77,0,0,1-22,21.24c-2.12,1.64-3.92,3-4,3.12-.24.2,7.37,3.77,12.42,5.81,17,6.82,34,10.58,54.86,12.15l7,.48,50.09,29.29,50.1,29.25.2-44.36.2-44.36,2.8-2.12c16.19-12.27,28.7-27.17,36.91-43.88a91.28,91.28,0,0,0,7.77-20.8c2.41-9.58,3-14.27,3-24.89s-.56-15.31-3-24.88a91.13,91.13,0,0,0-7.81-20.8c-14.91-30.38-43.76-54.22-80.75-66.76A180.77,180.77,0,0,0,329.35,175.57Z" transform="translate(-10 -22.84)"/></g></svg>