<svg viewBox="0.0 0.0 15.8 19.9">
    <path transform="translate(0.0, 0.0)"
        d="M 0 16.17390060424805 C 0 12.87720012664795 4.520699977874756 12.49650001525879 7.920900344848633 12.49650001525879 C 9.879300117492676 12.49650001525879 15.84000015258789 12.49650001525879 15.84000015258789 16.19370079040527 C 15.84000015258789 19.48859977722168 11.32019996643066 19.87020111083984 7.920900344848633 19.87020111083984 C 5.961600303649902 19.87020111083984 0 19.87020111083984 0 16.17390060424805 Z M 1.500300049781799 16.17390060424805 C 1.500300049781799 17.63190078735352 3.660300016403198 18.37080001831055 7.920900344848633 18.37080001831055 C 12.17969989776611 18.37080001831055 14.33970069885254 17.6382007598877 14.33970069885254 16.19370079040527 C 14.33970069885254 14.7357006072998 12.17969989776611 13.99680042266846 7.920900344848633 13.99680042266846 C 3.660300016403198 13.99680042266846 1.500300049781799 14.72940063476563 1.500300049781799 16.17390060424805 Z M 7.889400005340576 10.61910057067871 C 6.476400375366211 10.61460018157959 5.148000240325928 10.05930042266846 4.149899959564209 9.054900169372559 C 3.151800155639648 8.05049991607666 2.605499982833862 6.719399929046631 2.610000133514404 5.307300090789795 C 2.610000133514404 2.380500078201294 4.992300033569336 0 7.920900344848633 0 C 10.84860038757324 0 13.23000049591064 2.382300138473511 13.23000049591064 5.309999942779541 C 13.23000049591064 8.237700462341309 10.84860038757324 10.61910057067871 7.920900344848633 10.61910057067871 Z M 4.038300037384033 5.309999942779541 C 4.031100273132324 7.442100048065186 5.760000228881836 9.183600425720215 7.89210033416748 9.191699981689453 L 7.920900344848633 9.90630054473877 L 7.920900344848633 9.191699981689453 C 8.957699775695801 9.190800666809082 9.931500434875488 8.786700248718262 10.66410064697266 8.053199768066406 C 11.3976001739502 7.31879997253418 11.80170059204102 6.345000267028809 11.80170059204102 5.309999942779541 C 11.80170059204102 3.169800043106079 10.06110000610352 1.428300023078918 7.920900344848633 1.428300023078918 C 5.779799938201904 1.428300023078918 4.038300037384033 3.169800043106079 4.038300037384033 5.309999942779541 Z"
        fill="#000000" stroke="none" stroke-width="1" stroke-miterlimit="10" stroke-linecap="butt" />
</svg>